<?xml version="1.0" encoding="UTF-8" standalone="no"?>
<svg
   xmlns:dc="http://purl.org/dc/elements/1.1/"
   xmlns:cc="http://creativecommons.org/ns#"
   xmlns:rdf="http://www.w3.org/1999/02/22-rdf-syntax-ns#"
   xmlns:svg="http://www.w3.org/2000/svg"
   xmlns="http://www.w3.org/2000/svg"
   xmlns:sodipodi="http://sodipodi.sourceforge.net/DTD/sodipodi-0.dtd"
   xmlns:inkscape="http://www.inkscape.org/namespaces/inkscape"
   inkscape:version="1.0 (4035a4fb49, 2020-05-01)"
   sodipodi:docname="logo-f20-extended.svg"
   id="svg8"
   version="1.1"
   viewBox="0 0 82.020832 87.312502"
   height="330"
   width="310">
  <g
     clip-path="url(#clipPath1998)"
     id="g1990">
    <path
       style="vector-effect:none;fill:#ad8a4a;fill-opacity:0.48627451;fill-rule:evenodd;stroke:none;stroke-width:1.5875;stroke-linecap:butt;stroke-linejoin:miter;stroke-miterlimit:4;stroke-dasharray:none;stroke-dashoffset:0;stroke-opacity:1;paint-order:normal"
       d="m 29.104166,0 c -4.383759,0 -7.9375,3.55374 -7.9375,7.9375 v 2.64583 2.64584 c 0,4.38376 3.553741,7.9375 7.9375,7.9375 4.38376,0 7.9375,-3.55374 7.9375,-7.9375 V 10.58333 7.9375 C 37.041666,3.55374 33.487926,0 29.104166,0 Z"
       id="path6053" />
    <path
       id="path6051"
       d="m 29.104166,2.64583 c -4.383759,0 -7.9375,3.55374 -7.9375,7.9375 v 2.64583 2.64584 c 0,4.38376 3.553741,7.9375 7.9375,7.9375 4.38376,0 7.9375,-3.55374 7.9375,-7.9375 v -2.64584 -2.64583 c 0,-4.38376 -3.55374,-7.9375 -7.9375,-7.9375 z"
       style="vector-effect:none;fill:#a98648;fill-opacity:0.51764709;fill-rule:evenodd;stroke:none;stroke-width:1.5875;stroke-linecap:butt;stroke-linejoin:miter;stroke-miterlimit:4;stroke-dasharray:none;stroke-dashoffset:0;stroke-opacity:1;paint-order:normal" />
    <path
       style="vector-effect:none;fill:#a68448;fill-opacity:0.52941179;fill-rule:evenodd;stroke:none;stroke-width:1.5875;stroke-linecap:butt;stroke-linejoin:miter;stroke-miterlimit:4;stroke-dasharray:none;stroke-dashoffset:0;stroke-opacity:1;paint-order:normal"
       d="m 29.104166,5.29167 c -4.383759,0 -7.9375,3.55374 -7.9375,7.9375 v 2.64583 2.64584 c 0,4.38376 3.553741,7.9375 7.9375,7.9375 4.38376,0 7.9375,-3.55374 7.9375,-7.9375 V 15.875 13.22917 c 0,-4.38376 -3.55374,-7.9375 -7.9375,-7.9375 z"
       id="path6049" />
    <path
       id="path6047"
       d="m 29.104166,7.9375 c -4.383759,0 -7.9375,3.55374 -7.9375,7.9375 v 2.64583 2.64584 c 0,4.38376 3.553741,7.9375 7.9375,7.9375 4.38376,0 7.9375,-3.55374 7.9375,-7.9375 V 18.52083 15.875 c 0,-4.38376 -3.55374,-7.9375 -7.9375,-7.9375 z"
       style="vector-effect:none;fill:#9e7e44;fill-opacity:0.58823532;fill-rule:evenodd;stroke:none;stroke-width:1.5875;stroke-linecap:butt;stroke-linejoin:miter;stroke-miterlimit:4;stroke-dasharray:none;stroke-dashoffset:0;stroke-opacity:1;paint-order:normal" />
    <path
       style="vector-effect:none;fill:#a18145;fill-opacity:0.56470591;fill-rule:evenodd;stroke:none;stroke-width:1.5875;stroke-linecap:butt;stroke-linejoin:miter;stroke-miterlimit:4;stroke-dasharray:none;stroke-dashoffset:0;stroke-opacity:1;paint-order:normal"
       d="m 29.104166,10.58333 c -4.383759,0 -7.9375,3.55374 -7.9375,7.9375 v 2.64583 2.64584 c 0,4.38376 3.553741,7.9375 7.9375,7.9375 4.38376,0 7.9375,-3.55374 7.9375,-7.9375 v -2.64584 -2.64583 c 0,-4.38376 -3.55374,-7.9375 -7.9375,-7.9375 z"
       id="path6045" />
    <path
       id="path6043"
       d="m 29.104166,13.22917 c -4.383759,0 -7.9375,3.55374 -7.9375,7.9375 v 2.64583 2.64584 c 0,4.38376 3.553741,7.9375 7.9375,7.9375 4.38376,0 7.9375,-3.55374 7.9375,-7.9375 V 23.8125 21.16667 c 0,-4.38376 -3.55374,-7.9375 -7.9375,-7.9375 z"
       style="vector-effect:none;fill:#a07f44;fill-opacity:0.57647061;fill-rule:evenodd;stroke:none;stroke-width:1.5875;stroke-linecap:butt;stroke-linejoin:miter;stroke-miterlimit:4;stroke-dasharray:none;stroke-dashoffset:0;stroke-opacity:1;paint-order:normal" />
    <path
       style="vector-effect:none;fill:#96773f;fill-opacity:0.64705884;fill-rule:evenodd;stroke:none;stroke-width:1.5875;stroke-linecap:butt;stroke-linejoin:miter;stroke-miterlimit:4;stroke-dasharray:none;stroke-dashoffset:0;stroke-opacity:1;paint-order:normal"
       d="m 29.104166,15.875 c -4.383759,0 -7.9375,3.55374 -7.9375,7.9375 v 2.64583 2.64584 c 0,4.38376 3.553741,7.9375 7.9375,7.9375 4.38376,0 7.9375,-3.55374 7.9375,-7.9375 V 26.45833 23.8125 c 0,-4.38376 -3.55374,-7.9375 -7.9375,-7.9375 z"
       id="path6041" />
    <path
       id="path1938"
       d="m 29.104166,18.52084 c -4.383759,0 -7.9375,3.55374 -7.9375,7.9375 v 2.64583 2.64584 c 0,4.38376 3.553741,7.9375 7.9375,7.9375 4.38376,0 7.9375,-3.55374 7.9375,-7.9375 v -2.64584 -2.64583 c 0,-4.38376 -3.55374,-7.9375 -7.9375,-7.9375 z"
       style="vector-effect:none;fill:#977840;fill-opacity:0.64313728;fill-rule:evenodd;stroke:none;stroke-width:1.5875;stroke-linecap:butt;stroke-linejoin:miter;stroke-miterlimit:4;stroke-dasharray:none;stroke-dashoffset:0;stroke-opacity:1;paint-order:normal" />
    <path
       style="vector-effect:none;fill:#826838;fill-opacity:0.79215688;fill-rule:evenodd;stroke:none;stroke-width:1.5875;stroke-linecap:butt;stroke-linejoin:miter;stroke-miterlimit:4;stroke-dasharray:none;stroke-dashoffset:0;stroke-opacity:1;paint-order:normal"
       d="m 29.104166,21.16667 c -4.383759,0 -7.9375,3.55374 -7.9375,7.9375 V 31.75 34.39584 c 0,4.38376 3.553741,7.9375 7.9375,7.9375 4.38376,0 7.9375,-3.55374 7.9375,-7.9375 V 31.75 29.10417 c 0,-4.38376 -3.55374,-7.9375 -7.9375,-7.9375 z"
       id="path1940" />
    <path
       id="path1942"
       d="m 29.104166,23.81251 c -4.383759,0 -7.9375,3.55374 -7.9375,7.9375 v 2.64583 2.64584 c 0,4.38376 3.553741,7.9375 7.9375,7.9375 4.38376,0 7.9375,-3.55374 7.9375,-7.9375 v -2.64584 -2.64583 c 0,-4.38376 -3.55374,-7.9375 -7.9375,-7.9375 z"
       style="vector-effect:none;fill:#7a6234;fill-opacity:0.84705883;fill-rule:evenodd;stroke:none;stroke-width:1.5875;stroke-linecap:butt;stroke-linejoin:miter;stroke-miterlimit:4;stroke-dasharray:none;stroke-dashoffset:0;stroke-opacity:1;paint-order:normal" />
    <path
       style="vector-effect:none;fill:#765f33;fill-opacity:0.87058824;fill-rule:evenodd;stroke:none;stroke-width:1.5875;stroke-linecap:butt;stroke-linejoin:miter;stroke-miterlimit:4;stroke-dasharray:none;stroke-dashoffset:0;stroke-opacity:1;paint-order:normal"
       d="m 29.104166,26.45834 c -4.383759,0 -7.9375,3.55374 -7.9375,7.9375 v 2.64583 2.64584 c 0,4.38376 3.553741,7.9375 7.9375,7.9375 4.38376,0 7.9375,-3.55374 7.9375,-7.9375 v -2.64584 -2.64583 c 0,-4.38376 -3.55374,-7.9375 -7.9375,-7.9375 z"
       id="path1944" />
    <path
       id="path1946"
       d="m 29.104166,29.10417 c -4.383759,0 -7.9375,3.55374 -7.9375,7.9375 v 2.64583 2.64584 c 0,4.38376 3.553741,7.9375 7.9375,7.9375 4.38376,0 7.9375,-3.55374 7.9375,-7.9375 V 39.6875 37.04167 c 0,-4.38376 -3.55374,-7.9375 -7.9375,-7.9375 z"
       style="vector-effect:none;fill:#755e32;fill-opacity:0.87843138;fill-rule:evenodd;stroke:none;stroke-width:1.5875;stroke-linecap:butt;stroke-linejoin:miter;stroke-miterlimit:4;stroke-dasharray:none;stroke-dashoffset:0;stroke-opacity:1;paint-order:normal" />
    <path
       style="vector-effect:none;fill:#745d31;fill-opacity:0.89019608;fill-rule:evenodd;stroke:none;stroke-width:1.5875;stroke-linecap:butt;stroke-linejoin:miter;stroke-miterlimit:4;stroke-dasharray:none;stroke-dashoffset:0;stroke-opacity:1;paint-order:normal"
       d="m 29.104166,31.75001 c -4.383759,0 -7.9375,3.55374 -7.9375,7.9375 v 2.64583 2.64584 c 0,4.38376 3.553741,7.9375 7.9375,7.9375 4.38376,0 7.9375,-3.55374 7.9375,-7.9375 v -2.64584 -2.64583 c 0,-4.38376 -3.55374,-7.9375 -7.9375,-7.9375 z"
       id="path1948" />
    <path
       id="path1950"
       d="m 29.104166,34.39584 c -4.383759,0 -7.9375,3.55374 -7.9375,7.9375 v 2.64583 2.64584 c 0,4.38376 3.553741,7.9375 7.9375,7.9375 4.38376,0 7.9375,-3.55374 7.9375,-7.9375 v -2.64584 -2.64583 c 0,-4.38376 -3.55374,-7.9375 -7.9375,-7.9375 z"
       style="vector-effect:none;fill:#725b31;fill-opacity:0.90588236;fill-rule:evenodd;stroke:none;stroke-width:1.5875;stroke-linecap:butt;stroke-linejoin:miter;stroke-miterlimit:4;stroke-dasharray:none;stroke-dashoffset:0;stroke-opacity:1;paint-order:normal" />
    <path
       style="vector-effect:none;fill:#6f592f;fill-opacity:0.92156863;fill-rule:evenodd;stroke:none;stroke-width:1.5875;stroke-linecap:butt;stroke-linejoin:miter;stroke-miterlimit:4;stroke-dasharray:none;stroke-dashoffset:0;stroke-opacity:1;paint-order:normal"
       d="m 29.104166,37.04167 c -4.383759,0 -7.9375,3.55374 -7.9375,7.9375 v 2.64583 2.64584 c 0,4.38376 3.553741,7.9375 7.9375,7.9375 4.38376,0 7.9375,-3.55374 7.9375,-7.9375 V 47.625 44.97917 c 0,-4.38376 -3.55374,-7.9375 -7.9375,-7.9375 z"
       id="path1952" />
    <path
       id="path1954"
       d="m 29.104166,39.6875 c -4.383759,0 -7.9375,3.55374 -7.9375,7.9375 v 2.64583 2.64584 c 0,4.38376 3.553741,7.9375 7.9375,7.9375 4.38376,0 7.9375,-3.55374 7.9375,-7.9375 V 50.27083 47.625 c 0,-4.38376 -3.55374,-7.9375 -7.9375,-7.9375 z"
       style="vector-effect:none;fill:#6d572e;fill-opacity:0.92941177;fill-rule:evenodd;stroke:none;stroke-width:1.5875;stroke-linecap:butt;stroke-linejoin:miter;stroke-miterlimit:4;stroke-dasharray:none;stroke-dashoffset:0;stroke-opacity:1;paint-order:normal" />
    <path
       style="vector-effect:none;fill:#6b562e;fill-opacity:0.94117647;fill-rule:evenodd;stroke:none;stroke-width:1.5875;stroke-linecap:butt;stroke-linejoin:miter;stroke-miterlimit:4;stroke-dasharray:none;stroke-dashoffset:0;stroke-opacity:1;paint-order:normal"
       d="m 29.104166,42.33334 c -4.383759,0 -7.9375,3.55374 -7.9375,7.9375 v 2.64583 2.64584 c 0,4.38376 3.553741,7.9375 7.9375,7.9375 4.38376,0 7.9375,-3.55374 7.9375,-7.9375 v -2.64584 -2.64583 c 0,-4.38376 -3.55374,-7.9375 -7.9375,-7.9375 z"
       id="path1956" />
    <path
       id="path1958"
       d="m 29.104166,44.97917 c -4.383759,0 -7.9375,3.55374 -7.9375,7.9375 v 2.64583 2.64584 c 0,4.38376 3.553741,7.9375 7.9375,7.9375 4.38376,0 7.9375,-3.55374 7.9375,-7.9375 V 55.5625 52.91667 c 0,-4.38376 -3.55374,-7.9375 -7.9375,-7.9375 z"
       style="vector-effect:none;fill:#6b562e;fill-opacity:0.94117647;fill-rule:evenodd;stroke:none;stroke-width:1.5875;stroke-linecap:butt;stroke-linejoin:miter;stroke-miterlimit:4;stroke-dasharray:none;stroke-dashoffset:0;stroke-opacity:1;paint-order:normal" />
    <path
       style="vector-effect:none;fill:#6a552d;fill-opacity:0.94509804;fill-rule:evenodd;stroke:none;stroke-width:1.5875;stroke-linecap:butt;stroke-linejoin:miter;stroke-miterlimit:4;stroke-dasharray:none;stroke-dashoffset:0;stroke-opacity:1;paint-order:normal"
       d="m 29.104166,47.625 c -4.383759,0 -7.9375,3.55374 -7.9375,7.9375 v 2.64583 2.64584 c 0,4.38376 3.553741,7.9375 7.9375,7.9375 4.38376,0 7.9375,-3.55374 7.9375,-7.9375 V 58.20833 55.5625 c 0,-4.38376 -3.55374,-7.9375 -7.9375,-7.9375 z"
       id="path1960" />
    <path
       id="path1962"
       d="m 29.104166,50.27084 c -4.383759,0 -7.9375,3.55374 -7.9375,7.9375 v 2.64583 2.64584 c 0,4.38376 3.553741,7.9375 7.9375,7.9375 4.38376,0 7.9375,-3.55374 7.9375,-7.9375 v -2.64584 -2.64583 c 0,-4.38376 -3.55374,-7.9375 -7.9375,-7.9375 z"
       style="vector-effect:none;fill:#69542d;fill-opacity:0.94901961;fill-rule:evenodd;stroke:none;stroke-width:1.5875;stroke-linecap:butt;stroke-linejoin:miter;stroke-miterlimit:4;stroke-dasharray:none;stroke-dashoffset:0;stroke-opacity:1;paint-order:normal" />
    <path
       style="vector-effect:none;fill:#624f29;fill-opacity:0.98823529;fill-rule:evenodd;stroke:none;stroke-width:1.5875;stroke-linecap:butt;stroke-linejoin:miter;stroke-miterlimit:4;stroke-dasharray:none;stroke-dashoffset:0;stroke-opacity:1;paint-order:normal"
       d="m 29.104166,52.91667 c -4.383759,0 -7.9375,3.55374 -7.9375,7.9375 V 63.5 66.14584 c 0,4.38376 3.553741,7.9375 7.9375,7.9375 4.38376,0 7.9375,-3.55374 7.9375,-7.9375 V 63.5 60.85417 c 0,-4.38376 -3.55374,-7.9375 -7.9375,-7.9375 z"
       id="path1964" />
    <path
       id="path1966"
       d="m 29.104166,55.562499 c -4.383759,0 -7.9375,3.55374 -7.9375,7.9375 v 2.64583 2.64584 c 0,4.38376 3.553741,7.9375 7.9375,7.9375 4.38376,0 7.9375,-3.55374 7.9375,-7.9375 v -2.64584 -2.64583 c 0,-4.38376 -3.55374,-7.9375 -7.9375,-7.9375 z"
       style="vector-effect:none;fill:#604d29;fill-opacity:1;fill-rule:evenodd;stroke:none;stroke-width:1.5875;stroke-linecap:butt;stroke-linejoin:miter;stroke-miterlimit:4;stroke-dasharray:none;stroke-dashoffset:0;stroke-opacity:1;paint-order:normal" />
  </g>
  <sodipodi:namedview
     fit-margin-bottom="0"
     fit-margin-right="0"
     fit-margin-left="0"
     fit-margin-top="0"
     inkscape:snap-grids="true"
     inkscape:current-layer="svg8"
     inkscape:window-maximized="0"
     inkscape:window-y="46"
     inkscape:window-x="33"
     inkscape:cy="261.48547"
     inkscape:cx="-140.15724"
     inkscape:zoom="0.76363636"
     inkscape:snap-smooth-nodes="true"
     showgrid="true"
     id="namedview993"
     inkscape:window-height="1078"
     inkscape:window-width="1457"
     inkscape:pageshadow="2"
     inkscape:pageopacity="0"
     guidetolerance="10"
     gridtolerance="10"
     objecttolerance="10"
     borderopacity="1"
     bordercolor="#666666"
     pagecolor="#ffffff">
    <inkscape:grid
       originy="0"
       originx="0"
       empspacing="5"
       spacingy="2.6458333"
       spacingx="2.6458333"
       id="grid1588"
       type="xygrid" />
  </sodipodi:namedview>
  <defs
     id="defs2">
    <clipPath
       id="clipPath1998"
       clipPathUnits="userSpaceOnUse">
      <path
         sodipodi:nodetypes="sccccccccs"
         d="m 29.104167,59.531245 c 3.653134,0 6.614583,2.961449 6.614583,6.614583 h 1.322917 L 39.6875,63.5 V -2.6458332 H 18.520833 V 63.5 l 2.645833,2.645831 1.322916,-3e-6 c 1e-6,-3.653134 2.961451,-6.614583 6.614585,-6.614583 z"
         style="fill:none;stroke:#000000;stroke-width:0.264583px;stroke-linecap:butt;stroke-linejoin:miter;stroke-opacity:1"
         id="path2000" />
    </clipPath>
  </defs>
  <metadata
     id="metadata5">
    <rdf:RDF>
      <cc:Work
         rdf:about="">
        <dc:format>image/svg+xml</dc:format>
        <dc:type
           rdf:resource="http://purl.org/dc/dcmitype/StillImage" />
        <dc:title></dc:title>
      </cc:Work>
    </rdf:RDF>
  </metadata>
  <path
     id="path1900"
     d="M 72.330078 64.822266 C 67.961991 64.822266 64.392578 68.391676 64.392578 72.759766 C 64.392578 77.127863 67.961983 80.697266 72.330078 80.697266 C 76.698168 80.697266 80.267578 77.12785 80.267578 72.759766 C 80.267578 68.391679 76.698165 64.822266 72.330078 64.822266 z M 72.330078 67.46875 C 75.268251 67.46875 77.621094 69.821593 77.621094 72.759766 C 77.621094 75.697941 75.268249 78.052734 72.330078 78.052734 C 69.391893 78.052734 67.039062 75.697948 67.039062 72.759766 C 67.039062 69.821595 69.391905 67.46875 72.330078 67.46875 z "
     style="color:#000000;font-style:normal;font-variant:normal;font-weight:normal;font-stretch:normal;font-size:medium;line-height:normal;font-family:sans-serif;font-variant-ligatures:normal;font-variant-position:normal;font-variant-caps:normal;font-variant-numeric:normal;font-variant-alternates:normal;font-variant-east-asian:normal;font-feature-settings:normal;font-variation-settings:normal;text-indent:0;text-align:start;text-decoration:none;text-decoration-line:none;text-decoration-style:solid;text-decoration-color:#000000;letter-spacing:normal;word-spacing:normal;text-transform:none;writing-mode:lr-tb;direction:ltr;text-orientation:mixed;dominant-baseline:auto;baseline-shift:baseline;text-anchor:start;white-space:normal;shape-padding:0;shape-margin:0;inline-size:0;clip-rule:nonzero;display:inline;overflow:visible;visibility:visible;isolation:auto;mix-blend-mode:normal;color-interpolation:sRGB;color-interpolation-filters:linearRGB;solid-color:#000000;solid-opacity:1;vector-effect:none;fill:#d1bb54;fill-opacity:1;fill-rule:evenodd;stroke:none;stroke-width:2.64583;stroke-linecap:round;stroke-linejoin:miter;stroke-miterlimit:4;stroke-dasharray:none;stroke-dashoffset:0;stroke-opacity:1;paint-order:stroke markers fill;color-rendering:auto;image-rendering:auto;shape-rendering:auto;text-rendering:auto;enable-background:accumulate;stop-color:#000000;stop-opacity:1;opacity:1" />
  <path
     style="vector-effect:none;fill:#d1bb54;fill-opacity:1;fill-rule:evenodd;stroke:none;stroke-width:1.5875;stroke-linecap:butt;stroke-linejoin:miter;stroke-miterlimit:4;stroke-dasharray:none;stroke-dashoffset:0;stroke-opacity:1;paint-order:normal"
     d="m 47.624999,50.270833 c -4.383759,0 -7.937499,3.55374 -7.937499,7.9375 v 7.9375 2.64583 7.9375 a 1.3229166,1.3229166 0 0 0 1.322916,1.32292 1.3229166,1.3229166 0 0 0 1.322917,-1.32292 v -7.9375 h 5.291666 a 1.3229166,1.3229166 0 0 0 1.322917,-1.32292 1.3229166,1.3229166 0 0 0 -1.322917,-1.32291 h -5.291666 v -7.9375 c 0,-2.92251 2.369158,-5.29167 5.291666,-5.29167 2.922508,0 5.291667,2.36916 5.291667,5.29167 a 1.3229166,1.3229166 0 0 0 1.322917,1.32291 1.3229166,1.3229166 0 0 0 1.322916,-1.32291 c 0,-4.38376 -3.55374,-7.9375 -7.9375,-7.9375 z"
     id="path1701" />
  <path
     style="vector-effect:none;fill:#d1bb54;fill-opacity:1;fill-rule:evenodd;stroke:none;stroke-width:1.5875;stroke-linecap:butt;stroke-linejoin:miter;stroke-miterlimit:4;stroke-dasharray:none;stroke-dashoffset:0;stroke-opacity:1;paint-order:normal"
     d="m 10.583333,50.270833 a 7.9374999,7.9374999 0 0 0 -7.9374997,7.9375 7.9374999,7.9374999 0 0 0 7.9374997,7.9375 7.9374999,7.9374999 0 0 0 5.291667,-2.032434 v 12.615767 c 0,2.922508 -2.36916,5.291667 -5.291667,5.291667 -2.9225066,0 -5.2916667,-2.369159 -5.2916664,-5.291667 A 1.3229166,1.3229166 0 0 0 3.96875,75.40625 1.3229166,1.3229166 0 0 0 2.6458333,76.729166 c 0,4.38376 3.5537399,7.9375 7.9374997,7.9375 4.38376,0 7.9375,-3.55374 7.9375,-7.9375 V 58.208333 a 7.9374999,7.9374999 0 0 0 -7.9375,-7.9375 z m 0,2.645834 A 5.2916663,5.2916663 0 0 1 15.875,58.208333 5.2916663,5.2916663 0 0 1 10.583333,63.5 5.2916663,5.2916663 0 0 1 5.2916666,58.208333 5.2916663,5.2916663 0 0 1 10.583333,52.916667 Z"
     id="path4627" />
  <path
     style="vector-effect:none;fill:#d1bb54;fill-opacity:1;fill-rule:evenodd;stroke:none;stroke-width:1.5875;stroke-linecap:butt;stroke-linejoin:miter;stroke-miterlimit:4;stroke-dasharray:none;stroke-dashoffset:0;stroke-opacity:1;paint-order:normal"
     d="m 29.104166,58.20833 c -4.38376,0 -7.9375,3.55374 -7.9375,7.937499 v 18.520833 c 4e-6,0.730621 0.592293,1.322917 1.322917,1.322917 0.730624,0 1.322913,-0.592296 1.322917,-1.322917 V 72.049345 c 1.45338,1.306256 3.337541,2.030481 5.291666,2.033984 4.38376,0 7.9375,-3.55374 7.9375,-7.9375 0,-4.383759 -3.55374,-7.937499 -7.9375,-7.937499 z m 0,2.645833 a 5.2916663,5.2916663 0 0 1 5.291667,5.291666 5.2916663,5.2916663 0 0 1 -5.291667,5.291667 5.2916663,5.2916663 0 0 1 -5.291666,-5.291667 5.2916663,5.2916663 0 0 1 5.291666,-5.291666 z"
     id="path4631" />
  <path
     id="path1904"
     d="M 47.625 60.853516 A 1.322915 1.322915 0 0 0 46.302734 62.177734 A 1.322915 1.322915 0 0 0 47.625 63.5 L 54.240234 63.5 C 57.178407 63.5 59.53125 65.852845 59.53125 68.791016 C 59.53125 71.729201 57.178419 74.083984 54.240234 74.083984 L 52.255859 74.083984 C 48.98371 74.083984 46.302734 76.76496 46.302734 80.037109 C 46.302734 83.309258 48.98371 85.990234 52.255859 85.990234 L 72.330078 85.990234 A 1.322915 1.322915 0 0 0 73.652344 84.666016 A 1.322915 1.322915 0 0 0 72.330078 83.34375 L 52.255859 83.34375 C 50.413628 83.34375 48.947266 81.87934 48.947266 80.037109 C 48.947266 78.194878 50.413628 76.728516 52.255859 76.728516 L 54.240234 76.728516 C 58.608329 76.728516 62.177734 73.159111 62.177734 68.791016 C 62.177734 64.422926 58.608321 60.853516 54.240234 60.853516 L 47.625 60.853516 z "
     style="color:#000000;font-style:normal;font-variant:normal;font-weight:normal;font-stretch:normal;font-size:medium;line-height:normal;font-family:sans-serif;font-variant-ligatures:normal;font-variant-position:normal;font-variant-caps:normal;font-variant-numeric:normal;font-variant-alternates:normal;font-variant-east-asian:normal;font-feature-settings:normal;font-variation-settings:normal;text-indent:0;text-align:start;text-decoration:none;text-decoration-line:none;text-decoration-style:solid;text-decoration-color:#000000;letter-spacing:normal;word-spacing:normal;text-transform:none;writing-mode:lr-tb;direction:ltr;text-orientation:mixed;dominant-baseline:auto;baseline-shift:baseline;text-anchor:start;white-space:normal;shape-padding:0;shape-margin:0;inline-size:0;clip-rule:nonzero;display:inline;overflow:visible;visibility:visible;isolation:auto;mix-blend-mode:normal;color-interpolation:sRGB;color-interpolation-filters:linearRGB;solid-color:#000000;solid-opacity:1;vector-effect:none;fill:#d1bb54;fill-opacity:1;fill-rule:nonzero;stroke:none;stroke-width:2.64583;stroke-linecap:round;stroke-linejoin:miter;stroke-miterlimit:4;stroke-dasharray:none;stroke-dashoffset:0;stroke-opacity:1;paint-order:stroke markers fill;color-rendering:auto;image-rendering:auto;shape-rendering:auto;text-rendering:auto;enable-background:accumulate;stop-color:#000000;stop-opacity:1;opacity:1" />
</svg>
